<?xml version="1.0" encoding="iso-8859-1"?>
<!-- Generator: Adobe Illustrator 19.0.0, SVG Export Plug-In . SVG Version: 6.00 Build 0)  -->
<svg version="1.1" id="Layer_1" xmlns="http://www.w3.org/2000/svg" xmlns:xlink="http://www.w3.org/1999/xlink" x="0px" y="0px"
	 viewBox="0 0 512 512" style="enable-background:new 0 0 512 512;" xml:space="preserve">
<path style="fill:#48A7E6;" d="M289.392,511.998c-4.336,0-8.608-1.695-11.804-4.892l-66.783-66.783
	c-6.521-6.516-6.521-17.092,0-23.609l66.783-66.783c4.783-4.783,11.979-6.206,18.196-3.62c6.239,2.581,10.305,8.668,10.305,15.423
	v6.054c43.478-19.44,72.348-62.771,72.348-111.793c0-6.755,4.065-12.842,10.305-15.423c6.229-2.581,13.424-1.152,18.196,3.62
	l21.585,21.589l21.587-21.587c4.772-4.783,11.979-6.212,18.196-3.62c6.239,2.581,10.305,8.668,10.305,15.423
	c0,104.799-71.739,193.88-172.522,216.968v22.337c0,6.755-4.065,12.842-10.305,15.423
	C293.718,511.585,291.544,511.998,289.392,511.998z"/>
<path style="fill:#FFBC33;" d="M428.522,306.085c-4.272,0-8.544-1.631-11.804-4.892l-66.783-66.783
	c-4.772-4.772-6.206-11.956-3.62-18.196c2.587-6.24,8.674-10.305,15.423-10.305h6.054c-19.435-43.483-62.771-72.348-111.793-72.348
	c-6.749,0-12.837-4.065-15.423-10.305c-2.587-6.24-1.152-13.424,3.62-18.196l21.587-21.587l-21.587-21.587
	c-4.772-4.772-6.206-11.956-3.62-18.196c2.587-6.24,8.674-10.305,15.423-10.305c104.804,0,193.891,71.733,216.968,172.522h22.337
	c6.749,0,12.837,4.065,15.423,10.305c2.587,6.24,1.152,13.424-3.62,18.196l-66.783,66.783
	C437.066,304.455,432.794,306.085,428.522,306.085z"/>
<path style="fill:#EC7838;" d="M116.87,272.694c-4.336,0-8.608-1.695-11.804-4.892l-21.587-21.586l-21.587,21.587
	c-4.783,4.777-11.967,6.217-18.196,3.62c-6.239-2.581-10.303-8.668-10.303-15.425c0-104.799,71.739-193.88,172.522-216.968V16.694
	c0-6.755,4.065-12.842,10.305-15.423c6.239-2.576,13.413-1.158,18.196,3.62l66.783,66.783c6.521,6.516,6.521,17.092,0,23.609
	l-66.783,66.783c-4.783,4.783-11.967,6.212-18.196,3.62c-6.239-2.581-10.305-8.668-10.305-15.423v-6.054
	c-43.479,19.44-72.348,62.771-72.348,111.793c0,6.755-4.065,12.842-10.305,15.423C121.197,272.281,119.023,272.694,116.87,272.694z"
	/>
<path style="fill:#7BCC29;" d="M210.805,440.325c-6.521-6.516-6.521-17.092,0-23.609l38.527-38.527
	c-46.25-2.489-86.579-30.606-105.125-72.103h6.054c6.749,0,12.837-4.065,15.423-10.305s1.152-13.424-3.62-18.196l-66.783-66.783
	c-6.521-6.521-17.087-6.521-23.609,0L4.891,277.585c-4.772,4.772-6.206,11.956-3.62,18.196s8.674,10.305,15.423,10.305h22.337
	c22.542,98.449,108.113,168.983,209.747,172.212L210.805,440.325z"/>
<path style="fill:#DB632C;" d="M301.197,71.672l-48.535-48.534v120.678l48.534-48.534C307.718,88.764,307.718,78.188,301.197,71.672
	z"/>
<path style="fill:#50B9FF;" d="M210.805,416.716c-6.521,6.516-6.521,17.092,0,23.609l41.856,41.856V374.859L210.805,416.716z"/>
<g>
</g>
<g>
</g>
<g>
</g>
<g>
</g>
<g>
</g>
<g>
</g>
<g>
</g>
<g>
</g>
<g>
</g>
<g>
</g>
<g>
</g>
<g>
</g>
<g>
</g>
<g>
</g>
<g>
</g>
</svg>
