<svg height="499pt" viewBox="-42 0 499 499.888" width="499pt" xmlns="http://www.w3.org/2000/svg" xmlns:xlink="http://www.w3.org/1999/xlink"><linearGradient id="a"><stop offset="0" stop-color="#e93e3a"/><stop offset=".352" stop-color="#ed6a3c"/><stop offset=".705" stop-color="#f3903f"/><stop offset="1" stop-color="#fdc70c"/></linearGradient><linearGradient id="b" gradientUnits="userSpaceOnUse" x1="308.385976" x2="308.385976" xlink:href="#a" y1="477.730202" y2="-16.125798"/><linearGradient id="c" gradientUnits="userSpaceOnUse" x1="108.385976" x2="108.385976" xlink:href="#a" y1="477.730202" y2="-16.125798"/><linearGradient id="d" gradientUnits="userSpaceOnUse" x1="208.385976" x2="208.385976" xlink:href="#a" y1="477.730202" y2="-16.125798"/><path d="m416.386719 249.722656c-.183594-98.875-69.78125-184.03125-166.640625-203.886718-4.332032-.886719-8.558594 1.910156-9.445313 6.242187-.882812 4.332031 1.914063 8.558594 6.246094 9.445313 93.859375 19.078124 159.300781 104.414062 153.386719 200.007812-5.917969 95.597656-81.378906 172.210938-176.875 179.574219l34.03125-55.328125c1.6875-2.433594 1.894531-5.597656.535156-8.230469s-4.058594-4.296875-7.023438-4.328125c-2.960937-.03125-5.695312 1.574219-7.113281 4.175781l-41.917969 68.136719c-.105468.167969-.105468.367188-.199218.542969-.234375.480469-.417969.984375-.554688 1.503906-.160156.519531-.269531 1.058594-.320312 1.601563 0 .199218-.109375.375-.109375.574218.039062.292969.101562.585938.175781.871094.078125 1.054688.402344 2.070312.945312 2.976562.234376.441407.515626.855469.839844 1.242188.359375.410156.757813.785156 1.191406 1.117188.238282.183593.390626.441406.65625.609374l68.132813 41.910157c2.433594 1.671875 5.589844 1.867187 8.210937.511719 2.621094-1.359376 4.28125-4.050782 4.320313-7 .039063-2.953126-1.550781-5.683594-4.136719-7.109376l-46.738281-28.761718c104.113281-13.027344 182.273437-101.476563 182.402344-206.398438zm0 0" fill="url(#b)"/><path d="m169.882812 437.867188c-93.78125-19.214844-159.085937-104.574219-153.089843-200.113282 5.992187-95.542968 81.449219-172.074218 176.898437-179.414062l-34.035156 55.328125c-1.6875 2.429687-1.890625 5.597656-.535156 8.230469 1.359375 2.628906 4.0625 4.296874 7.023437 4.328124 2.960938.03125 5.699219-1.574218 7.113281-4.175781l41.921876-68.136719c.101562-.167968.101562-.367187.199218-.542968.234375-.484375.417969-.988282.550782-1.503906.164062-.519532.269531-1.058594.320312-1.601563 0-.199219.113281-.375.113281-.574219-.042969-.296875-.101562-.585937-.175781-.875-.054688-.539062-.164062-1.078125-.320312-1.597656-.164063-.476562-.375-.9375-.625-1.375-.226563-.441406-.492188-.855469-.800782-1.242188-.359375-.410156-.757812-.785156-1.191406-1.121093-.238281-.183594-.390625-.4375-.65625-.605469l-68.152344-41.878906c-3.734375-2.0625-8.429687-.828125-10.671875 2.804687-2.238281 3.628907-1.234375 8.378907 2.28125 10.792969l46.734375 28.726562c-101.082031 12.566407-178.195312 96.488282-182.183594 198.273438-3.984374 101.785156 66.328126 191.480469 166.121094 211.914062.527344.101563 1.0625.15625 1.597656.160157 4.097657-.015625 7.519532-3.121094 7.929688-7.199219.414062-4.074219-2.320312-7.800781-6.328125-8.632812zm0 0" fill="url(#c)"/><path d="m208.386719 345.722656c1.140625 0 2.269531-.246094 3.3125-.71875.183593-.089844 4.796875-2.1875 11.894531-6.1875 29.105469-15.972656 96.792969-59.75 96.792969-121.09375-.769531-26.167968-16.941407-49.40625-41.214844-59.21875-24.269531-9.8125-52.050781-4.339844-70.785156 13.945313-12.636719-12.738281-30.074219-19.542969-48-18.726563-35.332031.039063-63.960938 28.667969-64 64 0 61.34375 67.6875 105.121094 96.710937 121.046875 7.199219 4.046875 11.785156 6.144531 12 6.234375 1.03125.46875 2.152344.714844 3.289063.71875zm-96-128c.027343-26.5 21.5-47.972656 48-48 16.335937-1.230468 32.066406 6.457032 41.136719 20.105469 1.546874 2.269531 4.113281 3.628906 6.863281 3.628906 2.746093 0 5.316406-1.359375 6.863281-3.628906 9.066406-13.648437 24.796875-21.335937 41.136719-20.105469 26.496093.027344 47.972656 21.5 48 48 0 54.28125-67.738281 95.671875-88.570313 107.113282-3.046875 1.71875-5.597656 3.054687-7.429687 4-1.847657-.9375-4.417969-2.289063-7.503907-4-20.761718-11.441407-88.496093-52.832032-88.496093-107.113282zm0 0" fill="url(#d)"/></svg>